<?xml version="1.0" encoding="utf-8" ?>
<svg baseProfile="tiny" height="100%" version="1.2" width="100%" xmlns="http://www.w3.org/2000/svg" xmlns:ev="http://www.w3.org/2001/xml-events" xmlns:xlink="http://www.w3.org/1999/xlink"><defs /><rect fill="black" height="1" width="1" x="21" y="1" /><rect fill="black" height="1" width="1" x="29" y="1" /><rect fill="black" height="1" width="1" x="28" y="2" /><rect fill="black" height="1" width="1" x="22" y="3" /><rect fill="black" height="1" width="1" x="27" y="3" /><rect fill="black" height="1" width="1" x="17" y="4" /><rect fill="black" height="1" width="1" x="26" y="4" /><rect fill="black" height="1" width="1" x="19" y="5" /><rect fill="black" height="1" width="1" x="23" y="5" /><rect fill="black" height="1" width="1" x="21" y="6" /><rect fill="black" height="1" width="1" x="12" y="7" /><rect fill="black" height="1" width="1" x="13" y="7" /><rect fill="black" height="1" width="1" x="14" y="7" /><rect fill="black" height="1" width="1" x="15" y="7" /><rect fill="black" height="1" width="1" x="16" y="7" /><rect fill="black" height="1" width="1" x="27" y="7" /><rect fill="black" height="1" width="1" x="29" y="7" /><rect fill="black" height="1" width="1" x="31" y="7" /><rect fill="black" height="1" width="1" x="11" y="8" /><rect fill="black" height="1" width="1" x="17" y="8" /><rect fill="black" height="1" width="1" x="18" y="8" /><rect fill="black" height="1" width="1" x="22" y="8" /><rect fill="black" height="1" width="1" x="23" y="8" /><rect fill="black" height="1" width="1" x="24" y="8" /><rect fill="black" height="1" width="1" x="10" y="9" /><rect fill="black" height="1" width="1" x="19" y="9" /><rect fill="black" height="1" width="1" x="20" y="9" /><rect fill="black" height="1" width="1" x="21" y="9" /><rect fill="black" height="1" width="1" x="10" y="10" /><rect fill="black" height="1" width="1" x="27" y="10" /><rect fill="black" height="1" width="1" x="10" y="11" /><rect fill="black" height="1" width="1" x="21" y="11" /><rect fill="black" height="1" width="1" x="24" y="11" /><rect fill="black" height="1" width="1" x="28" y="11" /><rect fill="black" height="1" width="1" x="7" y="12" /><rect fill="black" height="1" width="1" x="8" y="12" /><rect fill="black" height="1" width="1" x="9" y="12" /><rect fill="black" height="1" width="1" x="10" y="12" /><rect fill="black" height="1" width="1" x="11" y="12" /><rect fill="black" height="1" width="1" x="12" y="12" /><rect fill="black" height="1" width="1" x="13" y="12" /><rect fill="black" height="1" width="1" x="20" y="12" /><rect fill="black" height="1" width="1" x="29" y="12" /><rect fill="black" height="1" width="1" x="7" y="13" /><rect fill="black" height="1" width="1" x="8" y="13" /><rect fill="black" height="1" width="1" x="9" y="13" /><rect fill="black" height="1" width="1" x="10" y="13" /><rect fill="black" height="1" width="1" x="11" y="13" /><rect fill="black" height="1" width="1" x="12" y="13" /><rect fill="black" height="1" width="1" x="13" y="13" /><rect fill="black" height="1" width="1" x="19" y="13" /><rect fill="black" height="1" width="1" x="24" y="13" /><rect fill="black" height="1" width="1" x="30" y="13" /><rect fill="black" height="1" width="1" x="7" y="14" /><rect fill="black" height="1" width="1" x="8" y="14" /><rect fill="black" height="1" width="1" x="9" y="14" /><rect fill="black" height="1" width="1" x="10" y="14" /><rect fill="black" height="1" width="1" x="11" y="14" /><rect fill="black" height="1" width="1" x="12" y="14" /><rect fill="black" height="1" width="1" x="13" y="14" /><rect fill="black" height="1" width="1" x="5" y="15" /><rect fill="black" height="1" width="1" x="6" y="15" /><rect fill="black" height="1" width="1" x="7" y="15" /><rect fill="black" height="1" width="1" x="8" y="15" /><rect fill="black" height="1" width="1" x="9" y="15" /><rect fill="black" height="1" width="1" x="10" y="15" /><rect fill="black" height="1" width="1" x="11" y="15" /><rect fill="black" height="1" width="1" x="12" y="15" /><rect fill="black" height="1" width="1" x="13" y="15" /><rect fill="black" height="1" width="1" x="14" y="15" /><rect fill="black" height="1" width="1" x="15" y="15" /><rect fill="black" height="1" width="1" x="24" y="15" /><rect fill="black" height="1" width="1" x="3" y="16" /><rect fill="black" height="1" width="1" x="4" y="16" /><rect fill="black" height="1" width="1" x="5" y="16" /><rect fill="black" height="1" width="1" x="6" y="16" /><rect fill="black" height="1" width="1" x="7" y="16" /><rect fill="black" height="1" width="1" x="8" y="16" /><rect fill="black" height="1" width="1" x="9" y="16" /><rect fill="black" height="1" width="1" x="10" y="16" /><rect fill="black" height="1" width="1" x="11" y="16" /><rect fill="black" height="1" width="1" x="12" y="16" /><rect fill="black" height="1" width="1" x="13" y="16" /><rect fill="black" height="1" width="1" x="14" y="16" /><rect fill="black" height="1" width="1" x="15" y="16" /><rect fill="black" height="1" width="1" x="16" y="16" /><rect fill="black" height="1" width="1" x="17" y="16" /><rect fill="black" height="1" width="1" x="3" y="17" /><rect fill="black" height="1" width="1" x="4" y="17" /><rect fill="black" height="1" width="1" x="5" y="17" /><rect fill="black" height="1" width="1" x="6" y="17" /><rect fill="black" height="1" width="1" x="7" y="17" /><rect fill="black" height="1" width="1" x="8" y="17" /><rect fill="black" height="1" width="1" x="9" y="17" /><rect fill="black" height="1" width="1" x="10" y="17" /><rect fill="black" height="1" width="1" x="11" y="17" /><rect fill="black" height="1" width="1" x="12" y="17" /><rect fill="black" height="1" width="1" x="13" y="17" /><rect fill="black" height="1" width="1" x="14" y="17" /><rect fill="black" height="1" width="1" x="15" y="17" /><rect fill="black" height="1" width="1" x="16" y="17" /><rect fill="black" height="1" width="1" x="17" y="17" /><rect fill="black" height="1" width="1" x="2" y="18" /><rect fill="black" height="1" width="1" x="3" y="18" /><rect fill="black" height="1" width="1" x="4" y="18" /><rect fill="black" height="1" width="1" x="5" y="18" /><rect fill="black" height="1" width="1" x="6" y="18" /><rect fill="black" height="1" width="1" x="7" y="18" /><rect fill="black" height="1" width="1" x="8" y="18" /><rect fill="black" height="1" width="1" x="9" y="18" /><rect fill="black" height="1" width="1" x="10" y="18" /><rect fill="black" height="1" width="1" x="11" y="18" /><rect fill="black" height="1" width="1" x="12" y="18" /><rect fill="black" height="1" width="1" x="13" y="18" /><rect fill="black" height="1" width="1" x="14" y="18" /><rect fill="black" height="1" width="1" x="15" y="18" /><rect fill="black" height="1" width="1" x="16" y="18" /><rect fill="black" height="1" width="1" x="17" y="18" /><rect fill="black" height="1" width="1" x="18" y="18" /><rect fill="black" height="1" width="1" x="2" y="19" /><rect fill="black" height="1" width="1" x="3" y="19" /><rect fill="black" height="1" width="1" x="4" y="19" /><rect fill="black" height="1" width="1" x="5" y="19" /><rect fill="black" height="1" width="1" x="6" y="19" /><rect fill="black" height="1" width="1" x="7" y="19" /><rect fill="black" height="1" width="1" x="8" y="19" /><rect fill="black" height="1" width="1" x="9" y="19" /><rect fill="black" height="1" width="1" x="10" y="19" /><rect fill="black" height="1" width="1" x="11" y="19" /><rect fill="black" height="1" width="1" x="12" y="19" /><rect fill="black" height="1" width="1" x="13" y="19" /><rect fill="black" height="1" width="1" x="14" y="19" /><rect fill="black" height="1" width="1" x="15" y="19" /><rect fill="black" height="1" width="1" x="16" y="19" /><rect fill="black" height="1" width="1" x="17" y="19" /><rect fill="black" height="1" width="1" x="18" y="19" /><rect fill="black" height="1" width="1" x="1" y="20" /><rect fill="black" height="1" width="1" x="2" y="20" /><rect fill="black" height="1" width="1" x="3" y="20" /><rect fill="black" height="1" width="1" x="4" y="20" /><rect fill="black" height="1" width="1" x="5" y="20" /><rect fill="black" height="1" width="1" x="6" y="20" /><rect fill="black" height="1" width="1" x="7" y="20" /><rect fill="black" height="1" width="1" x="8" y="20" /><rect fill="black" height="1" width="1" x="9" y="20" /><rect fill="black" height="1" width="1" x="10" y="20" /><rect fill="black" height="1" width="1" x="11" y="20" /><rect fill="black" height="1" width="1" x="12" y="20" /><rect fill="black" height="1" width="1" x="13" y="20" /><rect fill="black" height="1" width="1" x="14" y="20" /><rect fill="black" height="1" width="1" x="16" y="20" /><rect fill="black" height="1" width="1" x="17" y="20" /><rect fill="black" height="1" width="1" x="18" y="20" /><rect fill="black" height="1" width="1" x="19" y="20" /><rect fill="black" height="1" width="1" x="1" y="21" /><rect fill="black" height="1" width="1" x="2" y="21" /><rect fill="black" height="1" width="1" x="3" y="21" /><rect fill="black" height="1" width="1" x="4" y="21" /><rect fill="black" height="1" width="1" x="5" y="21" /><rect fill="black" height="1" width="1" x="6" y="21" /><rect fill="black" height="1" width="1" x="7" y="21" /><rect fill="black" height="1" width="1" x="8" y="21" /><rect fill="black" height="1" width="1" x="9" y="21" /><rect fill="black" height="1" width="1" x="10" y="21" /><rect fill="black" height="1" width="1" x="11" y="21" /><rect fill="black" height="1" width="1" x="12" y="21" /><rect fill="black" height="1" width="1" x="13" y="21" /><rect fill="black" height="1" width="1" x="14" y="21" /><rect fill="black" height="1" width="1" x="15" y="21" /><rect fill="black" height="1" width="1" x="16" y="21" /><rect fill="black" height="1" width="1" x="17" y="21" /><rect fill="black" height="1" width="1" x="18" y="21" /><rect fill="black" height="1" width="1" x="19" y="21" /><rect fill="black" height="1" width="1" x="1" y="22" /><rect fill="black" height="1" width="1" x="2" y="22" /><rect fill="black" height="1" width="1" x="3" y="22" /><rect fill="black" height="1" width="1" x="4" y="22" /><rect fill="black" height="1" width="1" x="5" y="22" /><rect fill="black" height="1" width="1" x="6" y="22" /><rect fill="black" height="1" width="1" x="7" y="22" /><rect fill="black" height="1" width="1" x="8" y="22" /><rect fill="black" height="1" width="1" x="9" y="22" /><rect fill="black" height="1" width="1" x="10" y="22" /><rect fill="black" height="1" width="1" x="11" y="22" /><rect fill="black" height="1" width="1" x="12" y="22" /><rect fill="black" height="1" width="1" x="13" y="22" /><rect fill="black" height="1" width="1" x="14" y="22" /><rect fill="black" height="1" width="1" x="15" y="22" /><rect fill="black" height="1" width="1" x="17" y="22" /><rect fill="black" height="1" width="1" x="18" y="22" /><rect fill="black" height="1" width="1" x="19" y="22" /><rect fill="black" height="1" width="1" x="1" y="23" /><rect fill="black" height="1" width="1" x="2" y="23" /><rect fill="black" height="1" width="1" x="3" y="23" /><rect fill="black" height="1" width="1" x="4" y="23" /><rect fill="black" height="1" width="1" x="5" y="23" /><rect fill="black" height="1" width="1" x="6" y="23" /><rect fill="black" height="1" width="1" x="7" y="23" /><rect fill="black" height="1" width="1" x="8" y="23" /><rect fill="black" height="1" width="1" x="9" y="23" /><rect fill="black" height="1" width="1" x="10" y="23" /><rect fill="black" height="1" width="1" x="11" y="23" /><rect fill="black" height="1" width="1" x="12" y="23" /><rect fill="black" height="1" width="1" x="13" y="23" /><rect fill="black" height="1" width="1" x="14" y="23" /><rect fill="black" height="1" width="1" x="15" y="23" /><rect fill="black" height="1" width="1" x="17" y="23" /><rect fill="black" height="1" width="1" x="18" y="23" /><rect fill="black" height="1" width="1" x="19" y="23" /><rect fill="black" height="1" width="1" x="1" y="24" /><rect fill="black" height="1" width="1" x="2" y="24" /><rect fill="black" height="1" width="1" x="3" y="24" /><rect fill="black" height="1" width="1" x="4" y="24" /><rect fill="black" height="1" width="1" x="5" y="24" /><rect fill="black" height="1" width="1" x="6" y="24" /><rect fill="black" height="1" width="1" x="7" y="24" /><rect fill="black" height="1" width="1" x="8" y="24" /><rect fill="black" height="1" width="1" x="9" y="24" /><rect fill="black" height="1" width="1" x="10" y="24" /><rect fill="black" height="1" width="1" x="11" y="24" /><rect fill="black" height="1" width="1" x="12" y="24" /><rect fill="black" height="1" width="1" x="13" y="24" /><rect fill="black" height="1" width="1" x="14" y="24" /><rect fill="black" height="1" width="1" x="15" y="24" /><rect fill="black" height="1" width="1" x="17" y="24" /><rect fill="black" height="1" width="1" x="18" y="24" /><rect fill="black" height="1" width="1" x="19" y="24" /><rect fill="black" height="1" width="1" x="1" y="25" /><rect fill="black" height="1" width="1" x="2" y="25" /><rect fill="black" height="1" width="1" x="3" y="25" /><rect fill="black" height="1" width="1" x="4" y="25" /><rect fill="black" height="1" width="1" x="5" y="25" /><rect fill="black" height="1" width="1" x="6" y="25" /><rect fill="black" height="1" width="1" x="7" y="25" /><rect fill="black" height="1" width="1" x="8" y="25" /><rect fill="black" height="1" width="1" x="9" y="25" /><rect fill="black" height="1" width="1" x="10" y="25" /><rect fill="black" height="1" width="1" x="11" y="25" /><rect fill="black" height="1" width="1" x="12" y="25" /><rect fill="black" height="1" width="1" x="13" y="25" /><rect fill="black" height="1" width="1" x="14" y="25" /><rect fill="black" height="1" width="1" x="15" y="25" /><rect fill="black" height="1" width="1" x="16" y="25" /><rect fill="black" height="1" width="1" x="17" y="25" /><rect fill="black" height="1" width="1" x="18" y="25" /><rect fill="black" height="1" width="1" x="19" y="25" /><rect fill="black" height="1" width="1" x="1" y="26" /><rect fill="black" height="1" width="1" x="2" y="26" /><rect fill="black" height="1" width="1" x="3" y="26" /><rect fill="black" height="1" width="1" x="4" y="26" /><rect fill="black" height="1" width="1" x="5" y="26" /><rect fill="black" height="1" width="1" x="6" y="26" /><rect fill="black" height="1" width="1" x="7" y="26" /><rect fill="black" height="1" width="1" x="8" y="26" /><rect fill="black" height="1" width="1" x="9" y="26" /><rect fill="black" height="1" width="1" x="10" y="26" /><rect fill="black" height="1" width="1" x="11" y="26" /><rect fill="black" height="1" width="1" x="12" y="26" /><rect fill="black" height="1" width="1" x="13" y="26" /><rect fill="black" height="1" width="1" x="14" y="26" /><rect fill="black" height="1" width="1" x="16" y="26" /><rect fill="black" height="1" width="1" x="17" y="26" /><rect fill="black" height="1" width="1" x="18" y="26" /><rect fill="black" height="1" width="1" x="19" y="26" /><rect fill="black" height="1" width="1" x="2" y="27" /><rect fill="black" height="1" width="1" x="3" y="27" /><rect fill="black" height="1" width="1" x="4" y="27" /><rect fill="black" height="1" width="1" x="5" y="27" /><rect fill="black" height="1" width="1" x="6" y="27" /><rect fill="black" height="1" width="1" x="7" y="27" /><rect fill="black" height="1" width="1" x="8" y="27" /><rect fill="black" height="1" width="1" x="9" y="27" /><rect fill="black" height="1" width="1" x="10" y="27" /><rect fill="black" height="1" width="1" x="11" y="27" /><rect fill="black" height="1" width="1" x="12" y="27" /><rect fill="black" height="1" width="1" x="13" y="27" /><rect fill="black" height="1" width="1" x="14" y="27" /><rect fill="black" height="1" width="1" x="15" y="27" /><rect fill="black" height="1" width="1" x="16" y="27" /><rect fill="black" height="1" width="1" x="17" y="27" /><rect fill="black" height="1" width="1" x="18" y="27" /><rect fill="black" height="1" width="1" x="2" y="28" /><rect fill="black" height="1" width="1" x="3" y="28" /><rect fill="black" height="1" width="1" x="4" y="28" /><rect fill="black" height="1" width="1" x="5" y="28" /><rect fill="black" height="1" width="1" x="6" y="28" /><rect fill="black" height="1" width="1" x="7" y="28" /><rect fill="black" height="1" width="1" x="8" y="28" /><rect fill="black" height="1" width="1" x="9" y="28" /><rect fill="black" height="1" width="1" x="10" y="28" /><rect fill="black" height="1" width="1" x="11" y="28" /><rect fill="black" height="1" width="1" x="12" y="28" /><rect fill="black" height="1" width="1" x="14" y="28" /><rect fill="black" height="1" width="1" x="15" y="28" /><rect fill="black" height="1" width="1" x="16" y="28" /><rect fill="black" height="1" width="1" x="17" y="28" /><rect fill="black" height="1" width="1" x="18" y="28" /><rect fill="black" height="1" width="1" x="3" y="29" /><rect fill="black" height="1" width="1" x="4" y="29" /><rect fill="black" height="1" width="1" x="5" y="29" /><rect fill="black" height="1" width="1" x="6" y="29" /><rect fill="black" height="1" width="1" x="7" y="29" /><rect fill="black" height="1" width="1" x="8" y="29" /><rect fill="black" height="1" width="1" x="9" y="29" /><rect fill="black" height="1" width="1" x="10" y="29" /><rect fill="black" height="1" width="1" x="11" y="29" /><rect fill="black" height="1" width="1" x="12" y="29" /><rect fill="black" height="1" width="1" x="13" y="29" /><rect fill="black" height="1" width="1" x="14" y="29" /><rect fill="black" height="1" width="1" x="15" y="29" /><rect fill="black" height="1" width="1" x="16" y="29" /><rect fill="black" height="1" width="1" x="17" y="29" /><rect fill="black" height="1" width="1" x="3" y="30" /><rect fill="black" height="1" width="1" x="4" y="30" /><rect fill="black" height="1" width="1" x="5" y="30" /><rect fill="black" height="1" width="1" x="6" y="30" /><rect fill="black" height="1" width="1" x="7" y="30" /><rect fill="black" height="1" width="1" x="8" y="30" /><rect fill="black" height="1" width="1" x="9" y="30" /><rect fill="black" height="1" width="1" x="10" y="30" /><rect fill="black" height="1" width="1" x="11" y="30" /><rect fill="black" height="1" width="1" x="12" y="30" /><rect fill="black" height="1" width="1" x="13" y="30" /><rect fill="black" height="1" width="1" x="14" y="30" /><rect fill="black" height="1" width="1" x="15" y="30" /><rect fill="black" height="1" width="1" x="16" y="30" /><rect fill="black" height="1" width="1" x="17" y="30" /><rect fill="black" height="1" width="1" x="5" y="31" /><rect fill="black" height="1" width="1" x="6" y="31" /><rect fill="black" height="1" width="1" x="7" y="31" /><rect fill="black" height="1" width="1" x="8" y="31" /><rect fill="black" height="1" width="1" x="9" y="31" /><rect fill="black" height="1" width="1" x="10" y="31" /><rect fill="black" height="1" width="1" x="11" y="31" /><rect fill="black" height="1" width="1" x="12" y="31" /><rect fill="black" height="1" width="1" x="13" y="31" /><rect fill="black" height="1" width="1" x="14" y="31" /><rect fill="black" height="1" width="1" x="15" y="31" /><rect fill="black" height="1" width="1" x="7" y="32" /><rect fill="black" height="1" width="1" x="8" y="32" /><rect fill="black" height="1" width="1" x="9" y="32" /><rect fill="black" height="1" width="1" x="10" y="32" /><rect fill="black" height="1" width="1" x="11" y="32" /><rect fill="black" height="1" width="1" x="12" y="32" /><rect fill="black" height="1" width="1" x="13" y="32" /></svg>